<svg width="48" height="48" viewBox="0 0 48 48" fill="none" xmlns="http://www.w3.org/2000/svg">
<path d="M23.8046 28.4876C26.1754 28.4876 28.0973 26.5657 28.0973 24.195C28.0973 21.8242 26.1754 19.9023 23.8046 19.9023C21.4339 19.9023 19.512 21.8242 19.512 24.195C19.512 26.5657 21.4339 28.4876 23.8046 28.4876Z" fill="white"/>
<path d="M29.1703 13.6587H18.4387C16.8778 13.6587 15.5119 14.1465 14.6339 15.0245C13.7559 15.9026 13.2681 17.2684 13.2681 18.8294V29.5609C13.2681 31.1219 13.7559 32.4877 14.7315 33.4633C15.7071 34.3413 16.9753 34.8291 18.5363 34.8291H29.1703C30.7312 34.8291 32.0971 34.3413 32.9751 33.4633C33.9507 32.5853 34.4385 31.2194 34.4385 29.6585V18.9269C34.4385 17.366 33.9507 16.0977 33.0727 15.1221C32.0971 14.1465 30.8288 13.6587 29.1703 13.6587ZM23.8045 30.8292C20.0972 30.8292 17.1705 27.8048 17.1705 24.1951C17.1705 20.4879 20.1948 17.5611 23.8045 17.5611C27.4142 17.5611 30.5361 20.4879 30.5361 24.1951C30.5361 27.9024 27.5118 30.8292 23.8045 30.8292ZM30.7312 18.8294C29.8532 18.8294 29.1703 18.1464 29.1703 17.2684C29.1703 16.3904 29.8532 15.7074 30.7312 15.7074C31.6093 15.7074 32.2922 16.3904 32.2922 17.2684C32.2922 18.1464 31.6093 18.8294 30.7312 18.8294Z" fill="white"/>
<path d="M23.9997 0C10.7316 0 0 10.7316 0 23.9997C0 37.2678 10.7316 47.9993 23.9997 47.9993C37.2678 47.9993 47.9993 37.2678 47.9993 23.9997C48.0969 10.7316 37.2678 0 23.9997 0ZM36.78 29.6581C36.78 31.902 35.9995 33.8532 34.6337 35.219C33.2678 36.5849 31.3166 37.2678 29.1703 37.2678H18.5363C16.39 37.2678 14.4388 36.5849 13.073 35.219C11.6096 33.8532 10.9267 31.902 10.9267 29.6581V18.9266C10.9267 14.4388 13.951 11.3169 18.5363 11.3169H29.2679C31.5118 11.3169 33.3654 12.0974 34.7312 13.4632C36.0971 14.8291 36.78 16.6827 36.78 18.9266V29.6581Z" fill="white"/>
</svg>
