<svg width="48" height="48" viewBox="0 0 48 48" fill="none" xmlns="http://www.w3.org/2000/svg">
<path fill-rule="evenodd" clip-rule="evenodd" d="M24 48C37.2548 48 48 37.2548 48 24C48 10.7452 37.2548 0 24 0C10.7452 0 0 10.7452 0 24C0 37.2548 10.7452 48 24 48Z" fill="white"/>
<path fill-rule="evenodd" clip-rule="evenodd" d="M17.5064 35.0585V20.4195H12.9819V35.0585H17.5064ZM17.5064 15.2306C17.4795 13.9205 16.6064 12.9231 15.188 12.9231C13.7693 12.9231 12.8423 13.9205 12.8423 15.2306C12.8423 16.5122 13.7423 17.5385 15.1338 17.5385H15.1607C16.6064 17.5385 17.5064 16.5122 17.5064 15.2306ZM24.888 35.0585V26.7179C24.888 26.2715 24.9203 25.8252 25.0515 25.507C25.4104 24.6146 26.2271 23.691 27.5985 23.691C29.3951 23.691 30.5218 24.7105 30.5218 26.7179V35.0585H35.0769V26.4947C35.0769 21.9072 32.628 19.7726 29.3615 19.7726C26.6832 19.7726 25.5076 21.2699 24.8549 22.2891L24.8876 20.3311H20.3403C20.4058 21.7326 20.3403 35.0585 20.3403 35.0585H24.888Z" fill="#0E124A"/>
</svg>
