<svg width="23" height="19" viewBox="0 0 23 19" fill="none" xmlns="http://www.w3.org/2000/svg">
<path d="M22.1375 6.9H17.25V0.8625C17.25 0.385969 16.864 0 16.3875 0H11.2125C10.736 0 10.35 0.385969 10.35 0.8625V3.45H8.05V0.575C8.05 0.257313 7.79269 0 7.475 0H6.9C6.58231 0 6.325 0.257313 6.325 0.575V3.45H4.025V0.575C4.025 0.257313 3.76769 0 3.45 0H2.875C2.55731 0 2.3 0.257313 2.3 0.575V3.45H0.8625C0.385969 3.45 0 3.83597 0 4.3125V17.25C0 17.885 0.514984 18.4 1.15 18.4H21.85C22.485 18.4 23 17.885 23 17.25V7.7625C23 7.28597 22.6137 6.9 22.1375 6.9ZM4.6 14.5188C4.6 14.757 4.40702 14.95 4.16875 14.95H2.73125C2.49298 14.95 2.3 14.757 2.3 14.5188V13.0813C2.3 12.843 2.49298 12.65 2.73125 12.65H4.16875C4.40702 12.65 4.6 12.843 4.6 13.0813V14.5188ZM4.6 11.0688C4.6 11.307 4.40702 11.5 4.16875 11.5H2.73125C2.49298 11.5 2.3 11.307 2.3 11.0688V9.63125C2.3 9.39299 2.49298 9.2 2.73125 9.2H4.16875C4.40702 9.2 4.6 9.39299 4.6 9.63125V11.0688ZM4.6 7.61875C4.6 7.85702 4.40702 8.05 4.16875 8.05H2.73125C2.49298 8.05 2.3 7.85702 2.3 7.61875V6.18125C2.3 5.94299 2.49298 5.75 2.73125 5.75H4.16875C4.40702 5.75 4.6 5.94299 4.6 6.18125V7.61875ZM9.2 14.5188C9.2 14.757 9.00702 14.95 8.76875 14.95H7.33125C7.09298 14.95 6.9 14.757 6.9 14.5188V13.0813C6.9 12.843 7.09298 12.65 7.33125 12.65H8.76875C9.00702 12.65 9.2 12.843 9.2 13.0813V14.5188ZM9.2 11.0688C9.2 11.307 9.00702 11.5 8.76875 11.5H7.33125C7.09298 11.5 6.9 11.307 6.9 11.0688V9.63125C6.9 9.39299 7.09298 9.2 7.33125 9.2H8.76875C9.00702 9.2 9.2 9.39299 9.2 9.63125V11.0688ZM9.2 7.61875C9.2 7.85702 9.00702 8.05 8.76875 8.05H7.33125C7.09298 8.05 6.9 7.85702 6.9 7.61875V6.18125C6.9 5.94299 7.09298 5.75 7.33125 5.75H8.76875C9.00702 5.75 9.2 5.94299 9.2 6.18125V7.61875ZM14.95 11.0688C14.95 11.307 14.757 11.5 14.5187 11.5H13.0813C12.843 11.5 12.65 11.307 12.65 11.0688V9.63125C12.65 9.39299 12.843 9.2 13.0813 9.2H14.5187C14.757 9.2 14.95 9.39299 14.95 9.63125V11.0688ZM14.95 7.61875C14.95 7.85702 14.757 8.05 14.5187 8.05H13.0813C12.843 8.05 12.65 7.85702 12.65 7.61875V6.18125C12.65 5.94299 12.843 5.75 13.0813 5.75H14.5187C14.757 5.75 14.95 5.94299 14.95 6.18125V7.61875ZM14.95 4.16875C14.95 4.40702 14.757 4.6 14.5187 4.6H13.0813C12.843 4.6 12.65 4.40702 12.65 4.16875V2.73125C12.65 2.49298 12.843 2.3 13.0813 2.3H14.5187C14.757 2.3 14.95 2.49298 14.95 2.73125V4.16875ZM20.7 14.5188C20.7 14.757 20.507 14.95 20.2687 14.95H18.8312C18.593 14.95 18.4 14.757 18.4 14.5188V13.0813C18.4 12.843 18.593 12.65 18.8312 12.65H20.2687C20.507 12.65 20.7 12.843 20.7 13.0813V14.5188ZM20.7 11.0688C20.7 11.307 20.507 11.5 20.2687 11.5H18.8312C18.593 11.5 18.4 11.307 18.4 11.0688V9.63125C18.4 9.39299 18.593 9.2 18.8312 9.2H20.2687C20.507 9.2 20.7 9.39299 20.7 9.63125V11.0688Z" fill="#0852AC"/>
</svg>
