<svg width="21" height="21" viewBox="0 0 21 21" fill="none" xmlns="http://www.w3.org/2000/svg">
<path d="M18.7449 14.1264C17.7175 14.9602 16.5862 15.6513 15.3594 16.1382L17.5899 20.0014L19.8027 20.9464C20.2051 21.1182 20.6596 20.8557 20.7121 20.4214L21 18.0322L18.7449 14.1264ZM20.4877 10.248C20.687 9.93342 20.5652 9.51015 20.2396 9.32968L19.0882 8.69108C18.7814 8.52086 18.4069 8.63119 18.2162 8.92568C16.53 11.5314 13.6277 13.1248 10.5002 13.1248C9.51868 13.1248 8.563 12.9505 7.65325 12.6519L10.4161 7.86626C10.4448 7.86708 10.4711 7.87488 10.4998 7.87488C10.5285 7.87488 10.5552 7.86708 10.5835 7.86626L12.679 11.4961C13.9599 11.1286 15.1219 10.44 16.0674 9.48964L13.9431 5.81018C14.2487 5.25115 14.4378 4.61952 14.4378 3.93744C14.4378 1.76282 12.6749 0 10.5002 0C8.32551 0 6.56263 1.76282 6.56263 3.93744C6.56263 4.61952 6.75171 5.25115 7.05688 5.81018L4.25545 10.6627C3.7407 10.1865 3.2727 9.65411 2.87402 9.06308C2.67755 8.77188 2.30102 8.66852 1.99709 8.84447L0.858884 9.50358C0.536905 9.68979 0.422879 10.1147 0.627551 10.4252C1.26618 11.3948 2.05041 12.2385 2.92365 12.9689L0 18.0326L0.287935 20.4218C0.340436 20.8561 0.794898 21.1186 1.19727 20.9468L3.41011 20.0018L6.31407 14.9721C7.63439 15.4741 9.04904 15.7498 10.5002 15.7498C14.5629 15.7498 18.3294 13.6576 20.4877 10.248ZM10.5002 2.62496C11.225 2.62496 11.8127 3.2127 11.8127 3.93744C11.8127 4.66217 11.225 5.24992 10.5002 5.24992C9.77544 5.24992 9.18768 4.66217 9.18768 3.93744C9.18768 3.2127 9.77544 2.62496 10.5002 2.62496Z" fill="#0852AC"/>
</svg>
