<svg width="24" height="20" viewBox="0 0 24 20" fill="none" xmlns="http://www.w3.org/2000/svg">
<path d="M18.6 8.4C15.6154 8.4 13.2 10.8154 13.2 13.8C13.2 16.7846 15.6154 19.2 18.6 19.2C21.5846 19.2 24 16.7846 24 13.8C24 10.8154 21.5846 8.4 18.6 8.4ZM21 14.0359C21 14.2361 20.8361 14.4 20.6359 14.4H18.3645C18.1643 14.4 18.0004 14.2361 18.0004 14.0359V11.1645C18.0004 10.9643 18.1643 10.8004 18.3645 10.8004H18.8359C19.0361 10.8004 19.2 10.9643 19.2 11.1645V13.2H20.6359C20.8361 13.2 21 13.3639 21 13.5641V14.0359ZM18.6 7.2C18.8025 7.2 19.002 7.21238 19.2 7.23038V5.4C19.2 4.44 18.36 3.6 17.4 3.6H14.4V1.8C14.4 0.84 13.56 0 12.6 0H6.6C5.64 0 4.8 0.84 4.8 1.8V3.6H1.8C0.84 3.6 0 4.44 0 5.4V8.4H14.817C15.8895 7.64663 17.1926 7.2 18.6 7.2ZM12 3.6H7.2V2.4H12V3.6ZM12.2558 12H7.8C7.4685 12 7.2 11.7315 7.2 11.4V9.6H0V15C0 15.96 0.84 16.8 1.8 16.8H12.7286C12.2663 15.8985 12 14.8808 12 13.8C12 13.1753 12.093 12.573 12.2558 12Z" fill="#0852AC"/>
</svg>
