<svg width="23" height="23" viewBox="0 0 23 23" fill="none" xmlns="http://www.w3.org/2000/svg">
<path d="M15.8215 19.1266L12.2639 22.6843C11.8428 23.1053 11.1603 23.1053 10.7392 22.6843L7.18157 19.1266C6.5024 18.4475 6.98342 17.2861 7.94394 17.2862H10.2422L10.2422 12.7578H5.71389V15.0561C5.71389 16.0167 4.55261 16.4977 3.87339 15.8185L0.315759 12.2609C-0.105294 11.8398 -0.105294 11.1572 0.315759 10.7362L3.87339 7.17855C4.55257 6.49937 5.71389 6.9804 5.71389 7.94092V10.2422H10.2422V5.71392H7.94084C6.98032 5.71392 6.4993 4.55264 7.17847 3.87342L10.7361 0.31579C11.1572 -0.105263 11.8397 -0.105263 12.2608 0.31579L15.8184 3.87342C16.4976 4.5526 16.0166 5.71392 15.0561 5.71392H12.7578V10.2422H17.2861V7.94393C17.2861 6.98341 18.4474 6.50238 19.1265 7.18156L22.6842 10.7392C23.1052 11.1602 23.1052 11.8429 22.6842 12.2639L19.1265 15.8215C18.4474 16.5007 17.286 16.0197 17.2861 15.0591V12.7578H12.7578V17.2861H15.0592C16.0197 17.2861 16.5007 18.4474 15.8215 19.1266Z" fill="#0852AC"/>
</svg>
